<mxfile host="65bd71144e">
    <diagram id="3dEEndeTsuPl5Xb_rlMp" name="ページ1">
        <mxGraphModel dx="2506" dy="1938" grid="1" gridSize="10" guides="1" tooltips="1" connect="1" arrows="1" fold="1" page="1" pageScale="1" pageWidth="827" pageHeight="1169" math="0" shadow="0">
            <root>
                <mxCell id="0"/>
                <mxCell id="1" parent="0"/>
                <mxCell id="123" value="" style="rounded=0;whiteSpace=wrap;html=1;" vertex="1" parent="1">
                    <mxGeometry x="-520" y="-10" width="1440" height="1980" as="geometry"/>
                </mxCell>
                <mxCell id="89" value="" style="endArrow=none;html=1;entryX=0;entryY=0;entryDx=80;entryDy=65;entryPerimeter=0;exitX=0.5;exitY=0;exitDx=0;exitDy=0;exitPerimeter=0;startArrow=classic;startFill=1;endFill=0;dashed=1;" parent="1" source="25" target="22" edge="1">
                    <mxGeometry width="50" height="50" relative="1" as="geometry">
                        <mxPoint x="200" y="730" as="sourcePoint"/>
                        <mxPoint x="250" y="680" as="targetPoint"/>
                        <Array as="points">
                            <mxPoint x="560" y="1310"/>
                        </Array>
                    </mxGeometry>
                </mxCell>
                <mxCell id="19" value="scraping/" style="rounded=0;whiteSpace=wrap;html=1;fillColor=none;align=right;verticalAlign=top;" parent="1" vertex="1">
                    <mxGeometry x="440" y="230" width="290" height="130" as="geometry"/>
                </mxCell>
                <mxCell id="85" value="deepLearning/nn/" style="rounded=0;whiteSpace=wrap;html=1;fillColor=none;align=left;verticalAlign=top;" parent="1" vertex="1">
                    <mxGeometry x="-20" y="1400" width="520" height="460" as="geometry"/>
                </mxCell>
                <mxCell id="75" value="deepLearning/" style="rounded=0;whiteSpace=wrap;html=1;fillColor=none;align=left;verticalAlign=top;" parent="1" vertex="1">
                    <mxGeometry x="-70" y="1160" width="570" height="190" as="geometry"/>
                </mxCell>
                <mxCell id="74" value="deepLearning/encoding/" style="rounded=0;whiteSpace=wrap;html=1;fillColor=none;align=left;verticalAlign=top;" parent="1" vertex="1">
                    <mxGeometry x="254" y="795" width="200" height="160" as="geometry"/>
                </mxCell>
                <mxCell id="73" value="deepLearning/encoding/encoder/" style="rounded=0;whiteSpace=wrap;html=1;fillColor=none;align=left;verticalAlign=top;" parent="1" vertex="1">
                    <mxGeometry x="170" y="410" width="340" height="320" as="geometry"/>
                </mxCell>
                <mxCell id="72" value="deepLearning/" style="rounded=0;whiteSpace=wrap;html=1;align=left;verticalAlign=top;fillColor=none;" parent="1" vertex="1">
                    <mxGeometry x="250" y="230" width="160" height="130" as="geometry"/>
                </mxCell>
                <mxCell id="2" value="netkeiba.db" style="shape=datastore;whiteSpace=wrap;html=1;" parent="1" vertex="1">
                    <mxGeometry x="384" y="10" width="80" height="60" as="geometry"/>
                </mxCell>
                <mxCell id="3" value="getFromDB.py" style="shape=note;whiteSpace=wrap;html=1;backgroundOutline=1;darkOpacity=0.05;" parent="1" vertex="1">
                    <mxGeometry x="320" y="250" width="80" height="100" as="geometry"/>
                </mxCell>
                <mxCell id="5" value="NetKeibaDB.py" style="shape=note;whiteSpace=wrap;html=1;backgroundOutline=1;darkOpacity=0.05;" parent="1" vertex="1">
                    <mxGeometry x="384" y="110" width="80" height="100" as="geometry"/>
                </mxCell>
                <mxCell id="7" value="" style="endArrow=classic;startArrow=classic;html=1;entryX=0.5;entryY=1;entryDx=0;entryDy=0;exitX=0.5;exitY=0;exitDx=0;exitDy=0;exitPerimeter=0;" parent="1" source="5" target="2" edge="1">
                    <mxGeometry width="50" height="50" relative="1" as="geometry">
                        <mxPoint x="330" y="260" as="sourcePoint"/>
                        <mxPoint x="380" y="210" as="targetPoint"/>
                    </mxGeometry>
                </mxCell>
                <mxCell id="8" value="" style="endArrow=classic;startArrow=classic;html=1;entryX=0.5;entryY=1;entryDx=0;entryDy=0;entryPerimeter=0;exitX=0.5;exitY=0;exitDx=0;exitDy=0;exitPerimeter=0;" parent="1" source="3" target="5" edge="1">
                    <mxGeometry width="50" height="50" relative="1" as="geometry">
                        <mxPoint x="280" y="330" as="sourcePoint"/>
                        <mxPoint x="330" y="280" as="targetPoint"/>
                    </mxGeometry>
                </mxCell>
                <mxCell id="10" value="" style="edgeStyle=entityRelationEdgeStyle;startArrow=none;endArrow=none;segment=10;curved=1;exitX=0;exitY=0.5;exitDx=0;exitDy=0;exitPerimeter=0;" parent="1" source="5" target="9" edge="1">
                    <mxGeometry relative="1" as="geometry">
                        <mxPoint x="280" y="140" as="sourcePoint"/>
                    </mxGeometry>
                </mxCell>
                <mxCell id="11" value="NNのためのデータ要求" style="whiteSpace=wrap;html=1;rounded=1;arcSize=50;align=center;verticalAlign=middle;strokeWidth=1;autosize=1;spacing=4;treeFolding=1;treeMoving=1;newEdgeStyle={&quot;edgeStyle&quot;:&quot;entityRelationEdgeStyle&quot;,&quot;startArrow&quot;:&quot;none&quot;,&quot;endArrow&quot;:&quot;none&quot;,&quot;segment&quot;:10,&quot;curved&quot;:1};" parent="1" vertex="1">
                    <mxGeometry x="80" y="260" width="189" height="32" as="geometry"/>
                </mxCell>
                <mxCell id="12" value="" style="edgeStyle=entityRelationEdgeStyle;startArrow=none;endArrow=none;segment=10;curved=1;exitX=0;exitY=0.5;exitDx=0;exitDy=0;exitPerimeter=0;" parent="1" source="3" target="11" edge="1">
                    <mxGeometry relative="1" as="geometry">
                        <mxPoint x="80" y="290" as="sourcePoint"/>
                    </mxGeometry>
                </mxCell>
                <mxCell id="13" value="netkeiba_scraping.py" style="shape=note;whiteSpace=wrap;html=1;backgroundOutline=1;darkOpacity=0.05;fillColor=#647687;strokeColor=#314354;fontColor=#ffffff;" parent="1" vertex="1">
                    <mxGeometry x="460" y="250" width="80" height="100" as="geometry"/>
                </mxCell>
                <mxCell id="14" value="" style="endArrow=classic;startArrow=classic;html=1;entryX=0.5;entryY=1;entryDx=0;entryDy=0;entryPerimeter=0;" parent="1" target="5" edge="1">
                    <mxGeometry width="50" height="50" relative="1" as="geometry">
                        <mxPoint x="490" y="250" as="sourcePoint"/>
                        <mxPoint x="540" y="200" as="targetPoint"/>
                    </mxGeometry>
                </mxCell>
                <mxCell id="16" value="" style="edgeStyle=entityRelationEdgeStyle;startArrow=none;endArrow=none;segment=10;curved=1;exitX=0;exitY=0;exitDx=80;exitDy=65;exitPerimeter=0;" parent="1" source="13" target="15" edge="1">
                    <mxGeometry relative="1" as="geometry">
                        <mxPoint x="460" y="230" as="sourcePoint"/>
                    </mxGeometry>
                </mxCell>
                <mxCell id="18" value="common/" style="rounded=0;whiteSpace=wrap;html=1;fillColor=none;align=left;verticalAlign=top;" parent="1" vertex="1">
                    <mxGeometry x="250" y="90" width="350" height="130" as="geometry"/>
                </mxCell>
                <mxCell id="9" value="SQLの発行とその結果を返す" style="whiteSpace=wrap;html=1;rounded=1;arcSize=50;align=center;verticalAlign=middle;strokeWidth=1;autosize=1;spacing=4;treeFolding=1;treeMoving=1;newEdgeStyle={&quot;edgeStyle&quot;:&quot;entityRelationEdgeStyle&quot;,&quot;startArrow&quot;:&quot;none&quot;,&quot;endArrow&quot;:&quot;none&quot;,&quot;segment&quot;:10,&quot;curved&quot;:1};" parent="1" vertex="1">
                    <mxGeometry x="80" y="130" width="215" height="32" as="geometry"/>
                </mxCell>
                <mxCell id="15" value="スクレイピングのためにデータの追加と要求" style="whiteSpace=wrap;html=1;rounded=1;arcSize=50;align=center;verticalAlign=middle;strokeWidth=1;autosize=1;spacing=4;treeFolding=1;treeMoving=1;newEdgeStyle={&quot;edgeStyle&quot;:&quot;entityRelationEdgeStyle&quot;,&quot;startArrow&quot;:&quot;none&quot;,&quot;endArrow&quot;:&quot;none&quot;,&quot;segment&quot;:10,&quot;curved&quot;:1};" parent="1" vertex="1">
                    <mxGeometry x="625" y="390" width="280" height="30" as="geometry"/>
                </mxCell>
                <mxCell id="23" value="" style="group" parent="1" vertex="1" connectable="0">
                    <mxGeometry x="374" y="440" width="100" height="120" as="geometry"/>
                </mxCell>
                <mxCell id="20" value="" style="shape=note;whiteSpace=wrap;html=1;backgroundOutline=1;darkOpacity=0.05;fillColor=default;" parent="23" vertex="1">
                    <mxGeometry width="80" height="100" as="geometry"/>
                </mxCell>
                <mxCell id="21" value="" style="shape=note;whiteSpace=wrap;html=1;backgroundOutline=1;darkOpacity=0.05;fillColor=default;" parent="23" vertex="1">
                    <mxGeometry x="10" y="10" width="80" height="100" as="geometry"/>
                </mxCell>
                <mxCell id="22" value="Encoder_" style="shape=note;whiteSpace=wrap;html=1;backgroundOutline=1;darkOpacity=0.05;fillColor=default;" parent="23" vertex="1">
                    <mxGeometry x="20" y="20" width="80" height="100" as="geometry"/>
                </mxCell>
                <mxCell id="24" value="" style="endArrow=none;startArrow=classic;html=1;entryX=0.5;entryY=1;entryDx=0;entryDy=0;entryPerimeter=0;exitX=0;exitY=0;exitDx=50;exitDy=0;exitPerimeter=0;startFill=1;endFill=0;" parent="1" source="20" target="3" edge="1">
                    <mxGeometry width="50" height="50" relative="1" as="geometry">
                        <mxPoint x="210" y="420" as="sourcePoint"/>
                        <mxPoint x="260" y="370" as="targetPoint"/>
                    </mxGeometry>
                </mxCell>
                <mxCell id="25" value="config_predict.py" style="shape=note;whiteSpace=wrap;html=1;backgroundOutline=1;darkOpacity=0.05;fillColor=default;" parent="1" vertex="1">
                    <mxGeometry x="374" y="1435" width="80" height="100" as="geometry"/>
                </mxCell>
                <mxCell id="27" value="deepLearningMain.py" style="shape=note;whiteSpace=wrap;html=1;backgroundOutline=1;darkOpacity=0.05;fillColor=#647687;fontColor=#ffffff;strokeColor=#314354;" parent="1" vertex="1">
                    <mxGeometry x="70" y="1435" width="80" height="100" as="geometry"/>
                </mxCell>
                <mxCell id="32" value="" style="group;" parent="1" vertex="1" connectable="0">
                    <mxGeometry x="300" y="826" width="100" height="120" as="geometry"/>
                </mxCell>
                <mxCell id="33" value="" style="shape=note;whiteSpace=wrap;html=1;backgroundOutline=1;darkOpacity=0.05;fillColor=#647687;fontColor=#ffffff;strokeColor=#314354;" parent="32" vertex="1">
                    <mxGeometry width="80" height="100" as="geometry"/>
                </mxCell>
                <mxCell id="34" value="" style="shape=note;whiteSpace=wrap;html=1;backgroundOutline=1;darkOpacity=0.05;fillColor=#647687;fontColor=#ffffff;strokeColor=#314354;" parent="32" vertex="1">
                    <mxGeometry x="10" y="10" width="80" height="100" as="geometry"/>
                </mxCell>
                <mxCell id="35" value="scraping/&lt;br&gt;append/&lt;br&gt;change/&lt;br&gt;DataNrm.py" style="shape=note;whiteSpace=wrap;html=1;backgroundOutline=1;darkOpacity=0.05;fillColor=#647687;fontColor=#ffffff;strokeColor=#314354;" parent="32" vertex="1">
                    <mxGeometry x="20" y="20" width="80" height="100" as="geometry"/>
                </mxCell>
                <mxCell id="37" value="" style="endArrow=none;startArrow=classic;html=1;entryX=0.5;entryY=1;entryDx=0;entryDy=0;entryPerimeter=0;exitX=0.5;exitY=0;exitDx=0;exitDy=0;exitPerimeter=0;endFill=0;" parent="1" source="35" target="39" edge="1">
                    <mxGeometry width="50" height="50" relative="1" as="geometry">
                        <mxPoint x="366" y="776" as="sourcePoint"/>
                        <mxPoint x="380" y="636" as="targetPoint"/>
                    </mxGeometry>
                </mxCell>
                <mxCell id="38" value="Encoder_X.py" style="shape=note;whiteSpace=wrap;html=1;backgroundOutline=1;darkOpacity=0.05;fillColor=default;" parent="1" vertex="1">
                    <mxGeometry x="230" y="440" width="80" height="100" as="geometry"/>
                </mxCell>
                <mxCell id="39" value="Encoder_Mgr.py" style="shape=note;whiteSpace=wrap;html=1;backgroundOutline=1;darkOpacity=0.05;fillColor=default;" parent="1" vertex="1">
                    <mxGeometry x="320" y="600" width="80" height="100" as="geometry"/>
                </mxCell>
                <mxCell id="40" value="" style="endArrow=none;dashed=1;html=1;exitX=0;exitY=0.5;exitDx=0;exitDy=0;exitPerimeter=0;" parent="1" source="20" target="38" edge="1">
                    <mxGeometry width="50" height="50" relative="1" as="geometry">
                        <mxPoint x="260" y="676" as="sourcePoint"/>
                        <mxPoint x="310" y="626" as="targetPoint"/>
                    </mxGeometry>
                </mxCell>
                <mxCell id="42" value="" style="endArrow=none;startArrow=classic;html=1;exitX=0.5;exitY=0;exitDx=0;exitDy=0;exitPerimeter=0;entryX=0.5;entryY=1;entryDx=0;entryDy=0;entryPerimeter=0;startFill=1;endFill=0;" parent="1" source="39" target="22" edge="1">
                    <mxGeometry width="50" height="50" relative="1" as="geometry">
                        <mxPoint x="260" y="856" as="sourcePoint"/>
                        <mxPoint x="380" y="826" as="targetPoint"/>
                    </mxGeometry>
                </mxCell>
                <mxCell id="43" value="エンコーダのマルチプロセス実行、結果の管理" style="whiteSpace=wrap;html=1;rounded=1;arcSize=50;align=center;verticalAlign=middle;strokeWidth=1;autosize=1;spacing=4;treeFolding=1;treeMoving=1;newEdgeStyle={&quot;edgeStyle&quot;:&quot;entityRelationEdgeStyle&quot;,&quot;startArrow&quot;:&quot;none&quot;,&quot;endArrow&quot;:&quot;none&quot;,&quot;segment&quot;:10,&quot;curved&quot;:1};fillColor=default;" parent="1" vertex="1">
                    <mxGeometry x="-87.5" y="580" width="290" height="30" as="geometry"/>
                </mxCell>
                <mxCell id="44" value="" style="edgeStyle=entityRelationEdgeStyle;startArrow=none;endArrow=none;segment=10;curved=1;exitX=0;exitY=0.5;exitDx=0;exitDy=0;exitPerimeter=0;" parent="1" source="39" target="43" edge="1">
                    <mxGeometry relative="1" as="geometry">
                        <mxPoint x="160" y="876" as="sourcePoint"/>
                    </mxGeometry>
                </mxCell>
                <mxCell id="45" value="エンコーダの共通する変数、関数の定義" style="whiteSpace=wrap;html=1;rounded=1;arcSize=50;align=center;verticalAlign=middle;strokeWidth=1;autosize=1;spacing=4;treeFolding=1;treeMoving=1;newEdgeStyle={&quot;edgeStyle&quot;:&quot;entityRelationEdgeStyle&quot;,&quot;startArrow&quot;:&quot;none&quot;,&quot;endArrow&quot;:&quot;none&quot;,&quot;segment&quot;:10,&quot;curved&quot;:1};fillColor=default;" parent="1" vertex="1">
                    <mxGeometry x="-87.5" y="450" width="260" height="30" as="geometry"/>
                </mxCell>
                <mxCell id="46" value="" style="edgeStyle=entityRelationEdgeStyle;startArrow=none;endArrow=none;segment=10;curved=1;exitX=0;exitY=0.5;exitDx=0;exitDy=0;exitPerimeter=0;" parent="1" source="38" target="45" edge="1">
                    <mxGeometry relative="1" as="geometry">
                        <mxPoint x="160" y="637" as="sourcePoint"/>
                    </mxGeometry>
                </mxCell>
                <mxCell id="47" value="マネージャから指定されたレースIDでそれぞれがエンコードを行う" style="whiteSpace=wrap;html=1;rounded=1;arcSize=50;align=center;verticalAlign=middle;strokeWidth=1;autosize=1;spacing=4;treeFolding=1;treeMoving=1;newEdgeStyle={&quot;edgeStyle&quot;:&quot;entityRelationEdgeStyle&quot;,&quot;startArrow&quot;:&quot;none&quot;,&quot;endArrow&quot;:&quot;none&quot;,&quot;segment&quot;:10,&quot;curved&quot;:1};fillColor=default;" parent="1" vertex="1">
                    <mxGeometry x="505" y="450" width="400" height="30" as="geometry"/>
                </mxCell>
                <mxCell id="48" value="" style="edgeStyle=entityRelationEdgeStyle;startArrow=none;endArrow=none;segment=10;curved=1;exitX=0;exitY=0;exitDx=80;exitDy=65;exitPerimeter=0;" parent="1" source="22" target="47" edge="1">
                    <mxGeometry relative="1" as="geometry">
                        <mxPoint x="80" y="746" as="sourcePoint"/>
                    </mxGeometry>
                </mxCell>
                <mxCell id="49" value="table.py" style="shape=note;whiteSpace=wrap;html=1;backgroundOutline=1;darkOpacity=0.05;fillColor=default;" parent="1" vertex="1">
                    <mxGeometry x="-57.5" y="1210" width="260" height="100" as="geometry"/>
                </mxCell>
                <mxCell id="54" value="" style="endArrow=classic;html=1;entryX=0;entryY=0.5;entryDx=0;entryDy=0;entryPerimeter=0;exitX=0.5;exitY=0;exitDx=0;exitDy=0;exitPerimeter=0;" parent="1" source="49" target="35" edge="1">
                    <mxGeometry width="50" height="50" relative="1" as="geometry">
                        <mxPoint x="610" y="866" as="sourcePoint"/>
                        <mxPoint x="660" y="816" as="targetPoint"/>
                    </mxGeometry>
                </mxCell>
                <mxCell id="55" value="エンコードクラスの指定、データの条件設定を行う&lt;br&gt;データ生成時(エンコード)と学習時(NN)に&lt;br&gt;条件をダブルメンテしなくてもいいようにここで共通化" style="whiteSpace=wrap;html=1;rounded=1;arcSize=50;align=center;verticalAlign=middle;strokeWidth=1;autosize=1;spacing=4;treeFolding=1;treeMoving=1;newEdgeStyle={&quot;edgeStyle&quot;:&quot;entityRelationEdgeStyle&quot;,&quot;startArrow&quot;:&quot;none&quot;,&quot;endArrow&quot;:&quot;none&quot;,&quot;segment&quot;:10,&quot;curved&quot;:1};fillColor=default;" parent="1" vertex="1">
                    <mxGeometry x="-427.5" y="1180" width="340" height="60" as="geometry"/>
                </mxCell>
                <mxCell id="56" value="" style="edgeStyle=entityRelationEdgeStyle;startArrow=none;endArrow=none;segment=10;curved=1;exitX=0;exitY=0.5;exitDx=0;exitDy=0;exitPerimeter=0;" parent="1" source="49" target="55" edge="1">
                    <mxGeometry relative="1" as="geometry">
                        <mxPoint x="200" y="1100" as="sourcePoint"/>
                    </mxGeometry>
                </mxCell>
                <mxCell id="57" value="エンコード結果をマネージャから受け取り、保存する" style="whiteSpace=wrap;html=1;rounded=1;arcSize=50;align=center;verticalAlign=middle;strokeWidth=1;autosize=1;spacing=4;treeFolding=1;treeMoving=1;newEdgeStyle={&quot;edgeStyle&quot;:&quot;entityRelationEdgeStyle&quot;,&quot;startArrow&quot;:&quot;none&quot;,&quot;endArrow&quot;:&quot;none&quot;,&quot;segment&quot;:10,&quot;curved&quot;:1};fillColor=default;" parent="1" vertex="1">
                    <mxGeometry x="430" y="850" width="330" height="30" as="geometry"/>
                </mxCell>
                <mxCell id="58" value="" style="edgeStyle=entityRelationEdgeStyle;startArrow=none;endArrow=none;segment=10;curved=1;entryX=0;entryY=0.5;entryDx=0;entryDy=0;" parent="1" target="57" edge="1">
                    <mxGeometry relative="1" as="geometry">
                        <mxPoint x="400" y="926" as="sourcePoint"/>
                        <mxPoint x="240" y="522" as="targetPoint"/>
                    </mxGeometry>
                </mxCell>
                <mxCell id="59" value="learningList" style="shape=datastore;whiteSpace=wrap;html=1;fillColor=default;" parent="1" vertex="1">
                    <mxGeometry x="325" y="1030" width="70" height="60" as="geometry"/>
                </mxCell>
                <mxCell id="60" value="" style="endArrow=classic;html=1;exitX=0.5;exitY=1;exitDx=0;exitDy=0;exitPerimeter=0;entryX=0.5;entryY=0;entryDx=0;entryDy=0;" parent="1" source="35" target="59" edge="1">
                    <mxGeometry width="50" height="50" relative="1" as="geometry">
                        <mxPoint x="610" y="1002" as="sourcePoint"/>
                        <mxPoint x="660" y="952" as="targetPoint"/>
                    </mxGeometry>
                </mxCell>
                <mxCell id="61" value="encoding_common.py" style="shape=note;whiteSpace=wrap;html=1;backgroundOutline=1;darkOpacity=0.05;fillColor=default;" parent="1" vertex="1">
                    <mxGeometry x="230" y="1210" width="260" height="100" as="geometry"/>
                </mxCell>
                <mxCell id="62" value="保存先フォルダの決定など汎用関数" style="whiteSpace=wrap;html=1;rounded=1;arcSize=50;align=center;verticalAlign=middle;strokeWidth=1;autosize=1;spacing=4;treeFolding=1;treeMoving=1;newEdgeStyle={&quot;edgeStyle&quot;:&quot;entityRelationEdgeStyle&quot;,&quot;startArrow&quot;:&quot;none&quot;,&quot;endArrow&quot;:&quot;none&quot;,&quot;segment&quot;:10,&quot;curved&quot;:1};fillColor=default;" parent="1" vertex="1">
                    <mxGeometry x="590" y="1200" width="230" height="30" as="geometry"/>
                </mxCell>
                <mxCell id="63" value="" style="edgeStyle=entityRelationEdgeStyle;startArrow=none;endArrow=none;segment=10;curved=1;exitX=0;exitY=0;exitDx=260;exitDy=65;exitPerimeter=0;" parent="1" source="61" target="62" edge="1">
                    <mxGeometry relative="1" as="geometry">
                        <mxPoint x="440" y="1430" as="sourcePoint"/>
                    </mxGeometry>
                </mxCell>
                <mxCell id="64" value="" style="endArrow=classic;startArrow=none;html=1;entryX=0.5;entryY=1;entryDx=0;entryDy=0;entryPerimeter=0;exitX=0.808;exitY=0;exitDx=0;exitDy=0;exitPerimeter=0;endFill=1;startFill=0;" parent="1" source="61" target="35" edge="1">
                    <mxGeometry width="50" height="50" relative="1" as="geometry">
                        <mxPoint x="540" y="1396" as="sourcePoint"/>
                        <mxPoint x="590" y="1346" as="targetPoint"/>
                        <Array as="points">
                            <mxPoint x="440" y="1070"/>
                        </Array>
                    </mxGeometry>
                </mxCell>
                <mxCell id="68" value="学習 + グラフの描画" style="whiteSpace=wrap;html=1;rounded=1;arcSize=50;align=center;verticalAlign=middle;strokeWidth=1;autosize=1;spacing=4;treeFolding=1;treeMoving=1;newEdgeStyle={&quot;edgeStyle&quot;:&quot;entityRelationEdgeStyle&quot;,&quot;startArrow&quot;:&quot;none&quot;,&quot;endArrow&quot;:&quot;none&quot;,&quot;segment&quot;:10,&quot;curved&quot;:1};fillColor=default;" parent="1" vertex="1">
                    <mxGeometry x="-130" y="1560" width="150" height="30" as="geometry"/>
                </mxCell>
                <mxCell id="69" value="" style="edgeStyle=entityRelationEdgeStyle;startArrow=none;endArrow=none;segment=10;curved=1;exitX=0.5;exitY=1;exitDx=0;exitDy=0;exitPerimeter=0;entryX=0.5;entryY=0;entryDx=0;entryDy=0;" parent="1" source="29" target="68" edge="1">
                    <mxGeometry relative="1" as="geometry">
                        <mxPoint x="-16" y="1398" as="sourcePoint"/>
                    </mxGeometry>
                </mxCell>
                <mxCell id="70" value="学習のみ" style="whiteSpace=wrap;html=1;rounded=1;arcSize=50;align=center;verticalAlign=middle;strokeWidth=1;autosize=1;spacing=4;treeFolding=1;treeMoving=1;newEdgeStyle={&quot;edgeStyle&quot;:&quot;entityRelationEdgeStyle&quot;,&quot;startArrow&quot;:&quot;none&quot;,&quot;endArrow&quot;:&quot;none&quot;,&quot;segment&quot;:10,&quot;curved&quot;:1};fillColor=none;" parent="1" vertex="1">
                    <mxGeometry y="1600" width="90" height="30" as="geometry"/>
                </mxCell>
                <mxCell id="71" value="" style="edgeStyle=entityRelationEdgeStyle;startArrow=none;endArrow=none;segment=10;curved=1;exitX=0.5;exitY=1;exitDx=0;exitDy=0;exitPerimeter=0;entryX=0.5;entryY=0;entryDx=0;entryDy=0;" parent="1" source="27" target="70" edge="1">
                    <mxGeometry relative="1" as="geometry">
                        <mxPoint x="-6" y="1640" as="sourcePoint"/>
                    </mxGeometry>
                </mxCell>
                <mxCell id="77" value="" style="endArrow=classic;html=1;entryX=0;entryY=0.65;entryDx=0;entryDy=0;entryPerimeter=0;exitX=0;exitY=0;exitDx=260;exitDy=65;exitPerimeter=0;" parent="1" source="49" target="61" edge="1">
                    <mxGeometry width="50" height="50" relative="1" as="geometry">
                        <mxPoint x="400" y="1060" as="sourcePoint"/>
                        <mxPoint x="170" y="860" as="targetPoint"/>
                    </mxGeometry>
                </mxCell>
                <mxCell id="78" value="predict.py" style="shape=note;whiteSpace=wrap;html=1;backgroundOutline=1;darkOpacity=0.05;fillColor=#647687;fontColor=#ffffff;strokeColor=#314354;" parent="1" vertex="1">
                    <mxGeometry x="220" y="1435" width="80" height="100" as="geometry"/>
                </mxCell>
                <mxCell id="66" value="deepLearning/analysis/" style="rounded=0;whiteSpace=wrap;html=1;fillColor=none;align=left;verticalAlign=top;" parent="1" vertex="1">
                    <mxGeometry x="-350" y="1400" width="310" height="150" as="geometry"/>
                </mxCell>
                <mxCell id="29" value="learning_check.py" style="shape=note;whiteSpace=wrap;html=1;backgroundOutline=1;darkOpacity=0.05;fillColor=default;" parent="1" vertex="1">
                    <mxGeometry x="-153" y="1430" width="80.00000000000001" height="100" as="geometry"/>
                </mxCell>
                <mxCell id="65" value="gradient_check.py&lt;br&gt;未メンテ" style="shape=note;whiteSpace=wrap;html=1;backgroundOutline=1;darkOpacity=0.05;fillColor=default;" parent="1" vertex="1">
                    <mxGeometry x="-280" y="1430" width="80.00000000000001" height="100" as="geometry"/>
                </mxCell>
                <mxCell id="80" value="" style="endArrow=classic;html=1;exitX=0.5;exitY=1;exitDx=0;exitDy=0;exitPerimeter=0;entryX=0.5;entryY=0;entryDx=0;entryDy=0;entryPerimeter=0;" parent="1" source="49" target="78" edge="1">
                    <mxGeometry width="50" height="50" relative="1" as="geometry">
                        <mxPoint x="-240" y="990" as="sourcePoint"/>
                        <mxPoint x="-190" y="940" as="targetPoint"/>
                    </mxGeometry>
                </mxCell>
                <mxCell id="82" value="" style="endArrow=classic;html=1;exitX=0.5;exitY=1;exitDx=0;exitDy=0;exitPerimeter=0;entryX=0.5;entryY=0;entryDx=0;entryDy=0;entryPerimeter=0;" parent="1" source="49" target="27" edge="1">
                    <mxGeometry width="50" height="50" relative="1" as="geometry">
                        <mxPoint x="-240" y="990" as="sourcePoint"/>
                        <mxPoint x="-190" y="940" as="targetPoint"/>
                    </mxGeometry>
                </mxCell>
                <mxCell id="83" value="" style="endArrow=classic;html=1;entryX=0.5;entryY=0;entryDx=0;entryDy=0;entryPerimeter=0;exitX=0.5;exitY=1;exitDx=0;exitDy=0;exitPerimeter=0;" parent="1" source="49" target="29" edge="1">
                    <mxGeometry width="50" height="50" relative="1" as="geometry">
                        <mxPoint x="-240" y="990" as="sourcePoint"/>
                        <mxPoint x="-190" y="940" as="targetPoint"/>
                    </mxGeometry>
                </mxCell>
                <mxCell id="84" value="" style="endArrow=classic;html=1;entryX=0.5;entryY=0;entryDx=0;entryDy=0;entryPerimeter=0;exitX=0.5;exitY=1;exitDx=0;exitDy=0;exitPerimeter=0;" parent="1" source="49" target="65" edge="1">
                    <mxGeometry width="50" height="50" relative="1" as="geometry">
                        <mxPoint x="-240" y="990" as="sourcePoint"/>
                        <mxPoint x="-190" y="940" as="targetPoint"/>
                    </mxGeometry>
                </mxCell>
                <mxCell id="87" value="" style="endArrow=classic;html=1;exitX=0;exitY=0.5;exitDx=0;exitDy=0;exitPerimeter=0;" parent="1" source="25" target="78" edge="1">
                    <mxGeometry width="50" height="50" relative="1" as="geometry">
                        <mxPoint x="260" y="1420" as="sourcePoint"/>
                        <mxPoint x="310" y="1370" as="targetPoint"/>
                    </mxGeometry>
                </mxCell>
                <mxCell id="90" value="" style="endArrow=classic;html=1;exitX=0.5;exitY=1;exitDx=0;exitDy=0;exitPerimeter=0;entryX=0.5;entryY=0;entryDx=0;entryDy=0;entryPerimeter=0;" parent="1" source="61" target="78" edge="1">
                    <mxGeometry width="50" height="50" relative="1" as="geometry">
                        <mxPoint x="-10" y="890" as="sourcePoint"/>
                        <mxPoint x="40" y="840" as="targetPoint"/>
                    </mxGeometry>
                </mxCell>
                <mxCell id="91" value="TwoLayerNet.py" style="shape=note;whiteSpace=wrap;html=1;backgroundOutline=1;darkOpacity=0.05;fillColor=none;" parent="1" vertex="1">
                    <mxGeometry x="70" y="1740" width="80" height="100" as="geometry"/>
                </mxCell>
                <mxCell id="93" value="" style="endArrow=classic;html=1;exitX=0.5;exitY=1;exitDx=0;exitDy=0;exitPerimeter=0;entryX=0;entryY=0;entryDx=80;entryDy=65;entryPerimeter=0;" parent="1" source="61" target="91" edge="1">
                    <mxGeometry width="50" height="50" relative="1" as="geometry">
                        <mxPoint x="-30" y="1050" as="sourcePoint"/>
                        <mxPoint x="10" y="930" as="targetPoint"/>
                        <Array as="points">
                            <mxPoint x="360" y="1580"/>
                        </Array>
                    </mxGeometry>
                </mxCell>
                <mxCell id="94" value="trainedParam" style="shape=datastore;whiteSpace=wrap;html=1;fillColor=none;" parent="1" vertex="1">
                    <mxGeometry x="70" y="1890" width="80" height="60" as="geometry"/>
                </mxCell>
                <mxCell id="96" value="" style="endArrow=classic;html=1;exitX=0.5;exitY=0;exitDx=0;exitDy=0;exitPerimeter=0;entryX=0.5;entryY=1;entryDx=0;entryDy=0;entryPerimeter=0;" parent="1" source="91" target="65" edge="1">
                    <mxGeometry width="50" height="50" relative="1" as="geometry">
                        <mxPoint x="-80" y="1808" as="sourcePoint"/>
                        <mxPoint x="-30" y="1758" as="targetPoint"/>
                    </mxGeometry>
                </mxCell>
                <mxCell id="97" value="" style="endArrow=classic;html=1;exitX=0.5;exitY=0;exitDx=0;exitDy=0;exitPerimeter=0;entryX=0.5;entryY=1;entryDx=0;entryDy=0;entryPerimeter=0;" parent="1" source="91" target="27" edge="1">
                    <mxGeometry width="50" height="50" relative="1" as="geometry">
                        <mxPoint x="-80" y="1808" as="sourcePoint"/>
                        <mxPoint x="-30" y="1758" as="targetPoint"/>
                    </mxGeometry>
                </mxCell>
                <mxCell id="98" value="" style="endArrow=classic;html=1;entryX=0.5;entryY=1;entryDx=0;entryDy=0;entryPerimeter=0;exitX=0.5;exitY=0;exitDx=0;exitDy=0;exitPerimeter=0;" parent="1" source="91" target="78" edge="1">
                    <mxGeometry width="50" height="50" relative="1" as="geometry">
                        <mxPoint x="-110" y="1658" as="sourcePoint"/>
                        <mxPoint x="-30" y="1758" as="targetPoint"/>
                    </mxGeometry>
                </mxCell>
                <mxCell id="99" value="" style="endArrow=classic;startArrow=classic;html=1;exitX=0.5;exitY=0;exitDx=0;exitDy=0;entryX=0.5;entryY=1;entryDx=0;entryDy=0;entryPerimeter=0;" parent="1" source="94" target="91" edge="1">
                    <mxGeometry width="50" height="50" relative="1" as="geometry">
                        <mxPoint x="-217.5" y="1808" as="sourcePoint"/>
                        <mxPoint x="-167.5" y="1758" as="targetPoint"/>
                    </mxGeometry>
                </mxCell>
                <mxCell id="101" value="" style="endArrow=classic;html=1;entryX=0.5;entryY=0;entryDx=0;entryDy=0;entryPerimeter=0;exitX=0.5;exitY=1;exitDx=0;exitDy=0;" parent="1" source="59" target="61" edge="1">
                    <mxGeometry width="50" height="50" relative="1" as="geometry">
                        <mxPoint x="-80" y="1140" as="sourcePoint"/>
                        <mxPoint x="-30" y="1090" as="targetPoint"/>
                    </mxGeometry>
                </mxCell>
                <mxCell id="102" value="" style="endArrow=classic;html=1;exitX=0.5;exitY=1;exitDx=0;exitDy=0;exitPerimeter=0;entryX=0.5;entryY=0;entryDx=0;entryDy=0;entryPerimeter=0;" parent="1" source="61" target="27" edge="1">
                    <mxGeometry width="50" height="50" relative="1" as="geometry">
                        <mxPoint x="90" y="1370" as="sourcePoint"/>
                        <mxPoint x="140" y="1320" as="targetPoint"/>
                    </mxGeometry>
                </mxCell>
                <mxCell id="103" value="" style="endArrow=classic;html=1;exitX=0;exitY=0.5;exitDx=0;exitDy=0;exitPerimeter=0;" parent="1" source="27" edge="1">
                    <mxGeometry width="50" height="50" relative="1" as="geometry">
                        <mxPoint x="40" y="1530" as="sourcePoint"/>
                        <mxPoint x="-70" y="1485" as="targetPoint"/>
                    </mxGeometry>
                </mxCell>
                <mxCell id="104" value="" style="endArrow=classic;html=1;exitX=0.5;exitY=1;exitDx=0;exitDy=0;exitPerimeter=0;entryX=0.5;entryY=0;entryDx=0;entryDy=0;entryPerimeter=0;" parent="1" source="38" target="39" edge="1">
                    <mxGeometry width="50" height="50" relative="1" as="geometry">
                        <mxPoint x="300" y="530" as="sourcePoint"/>
                        <mxPoint x="350" y="480" as="targetPoint"/>
                    </mxGeometry>
                </mxCell>
                <mxCell id="105" value="" style="endArrow=classic;html=1;exitX=0.5;exitY=1;exitDx=0;exitDy=0;exitPerimeter=0;entryX=0.5;entryY=0;entryDx=0;entryDy=0;entryPerimeter=0;" parent="1" source="3" target="39" edge="1">
                    <mxGeometry width="50" height="50" relative="1" as="geometry">
                        <mxPoint x="300" y="530" as="sourcePoint"/>
                        <mxPoint x="350" y="480" as="targetPoint"/>
                    </mxGeometry>
                </mxCell>
                <mxCell id="106" value="webdriver_functions.py" style="shape=note;whiteSpace=wrap;html=1;backgroundOutline=1;darkOpacity=0.05;fillColor=none;" parent="1" vertex="1">
                    <mxGeometry x="620" y="250" width="80" height="100" as="geometry"/>
                </mxCell>
                <mxCell id="107" value="" style="endArrow=classic;html=1;exitX=0;exitY=0.5;exitDx=0;exitDy=0;exitPerimeter=0;" parent="1" source="106" target="13" edge="1">
                    <mxGeometry width="50" height="50" relative="1" as="geometry">
                        <mxPoint x="590" y="370" as="sourcePoint"/>
                        <mxPoint x="640" y="320" as="targetPoint"/>
                    </mxGeometry>
                </mxCell>
                <mxCell id="108" value="netkeiba.com" style="ellipse;shape=cloud;whiteSpace=wrap;html=1;fillColor=none;" parent="1" vertex="1">
                    <mxGeometry x="770" y="255" width="120" height="80" as="geometry"/>
                </mxCell>
                <mxCell id="109" value="" style="endArrow=classic;startArrow=classic;html=1;entryX=0.16;entryY=0.55;entryDx=0;entryDy=0;entryPerimeter=0;exitX=1;exitY=0.49;exitDx=0;exitDy=0;exitPerimeter=0;" parent="1" source="106" target="108" edge="1">
                    <mxGeometry width="50" height="50" relative="1" as="geometry">
                        <mxPoint x="590" y="370" as="sourcePoint"/>
                        <mxPoint x="640" y="320" as="targetPoint"/>
                    </mxGeometry>
                </mxCell>
                <mxCell id="110" value="エンコード済みデータ保存" style="whiteSpace=wrap;html=1;rounded=1;arcSize=50;align=center;verticalAlign=middle;strokeWidth=1;autosize=1;spacing=4;treeFolding=1;treeMoving=1;newEdgeStyle={&quot;edgeStyle&quot;:&quot;entityRelationEdgeStyle&quot;,&quot;startArrow&quot;:&quot;none&quot;,&quot;endArrow&quot;:&quot;none&quot;,&quot;segment&quot;:10,&quot;curved&quot;:1};fillColor=default;" parent="1" vertex="1">
                    <mxGeometry x="430" y="1000" width="180" height="30" as="geometry"/>
                </mxCell>
                <mxCell id="111" value="" style="edgeStyle=entityRelationEdgeStyle;startArrow=none;endArrow=none;segment=10;curved=1;exitX=1;exitY=0.5;exitDx=0;exitDy=0;" parent="1" source="59" target="110" edge="1">
                    <mxGeometry relative="1" as="geometry">
                        <mxPoint x="588" y="1040" as="sourcePoint"/>
                    </mxGeometry>
                </mxCell>
                <mxCell id="112" value="学習済みパラメータ保存" style="whiteSpace=wrap;html=1;rounded=1;arcSize=50;align=center;verticalAlign=middle;strokeWidth=1;autosize=1;spacing=4;treeFolding=1;treeMoving=1;newEdgeStyle={&quot;edgeStyle&quot;:&quot;entityRelationEdgeStyle&quot;,&quot;startArrow&quot;:&quot;none&quot;,&quot;endArrow&quot;:&quot;none&quot;,&quot;segment&quot;:10,&quot;curved&quot;:1};fillColor=default;" parent="1" vertex="1">
                    <mxGeometry x="-130" y="1870" width="170" height="30" as="geometry"/>
                </mxCell>
                <mxCell id="113" value="" style="edgeStyle=entityRelationEdgeStyle;startArrow=none;endArrow=none;segment=10;curved=1;exitX=0;exitY=0.5;exitDx=0;exitDy=0;" parent="1" source="94" target="112" edge="1">
                    <mxGeometry relative="1" as="geometry">
                        <mxPoint x="-337.5" y="1870" as="sourcePoint"/>
                    </mxGeometry>
                </mxCell>
                <mxCell id="114" value="勾配計算が正しいか確認用" style="whiteSpace=wrap;html=1;rounded=1;arcSize=50;align=center;verticalAlign=middle;strokeWidth=1;autosize=1;spacing=4;treeFolding=1;treeMoving=1;newEdgeStyle={&quot;edgeStyle&quot;:&quot;entityRelationEdgeStyle&quot;,&quot;startArrow&quot;:&quot;none&quot;,&quot;endArrow&quot;:&quot;none&quot;,&quot;segment&quot;:10,&quot;curved&quot;:1};fillColor=default;" parent="1" vertex="1">
                    <mxGeometry x="-503" y="1430" width="180" height="30" as="geometry"/>
                </mxCell>
                <mxCell id="115" value="" style="edgeStyle=entityRelationEdgeStyle;startArrow=none;endArrow=none;segment=10;curved=1;exitX=0;exitY=0.5;exitDx=0;exitDy=0;exitPerimeter=0;" parent="1" source="65" target="114" edge="1">
                    <mxGeometry relative="1" as="geometry">
                        <mxPoint x="-510" y="1470" as="sourcePoint"/>
                    </mxGeometry>
                </mxCell>
                <mxCell id="116" value="予測したいレース情報を入力するファイル" style="whiteSpace=wrap;html=1;rounded=1;arcSize=50;align=center;verticalAlign=middle;strokeWidth=1;autosize=1;spacing=4;treeFolding=1;treeMoving=1;newEdgeStyle={&quot;edgeStyle&quot;:&quot;entityRelationEdgeStyle&quot;,&quot;startArrow&quot;:&quot;none&quot;,&quot;endArrow&quot;:&quot;none&quot;,&quot;segment&quot;:10,&quot;curved&quot;:1};fillColor=default;" parent="1" vertex="1">
                    <mxGeometry x="510" y="1450" width="270" height="30" as="geometry"/>
                </mxCell>
                <mxCell id="117" value="" style="edgeStyle=entityRelationEdgeStyle;startArrow=none;endArrow=none;segment=10;curved=1;exitX=0;exitY=0;exitDx=80;exitDy=65;exitPerimeter=0;" parent="1" source="25" target="116" edge="1">
                    <mxGeometry relative="1" as="geometry">
                        <mxPoint x="498" y="1505" as="sourcePoint"/>
                    </mxGeometry>
                </mxCell>
                <mxCell id="118" value="予測のみ" style="whiteSpace=wrap;html=1;rounded=1;arcSize=50;align=center;verticalAlign=middle;strokeWidth=1;autosize=1;spacing=4;treeFolding=1;treeMoving=1;newEdgeStyle={&quot;edgeStyle&quot;:&quot;entityRelationEdgeStyle&quot;,&quot;startArrow&quot;:&quot;none&quot;,&quot;endArrow&quot;:&quot;none&quot;,&quot;segment&quot;:10,&quot;curved&quot;:1};fillColor=none;" parent="1" vertex="1">
                    <mxGeometry x="120" y="1560" width="90" height="30" as="geometry"/>
                </mxCell>
                <mxCell id="119" value="" style="edgeStyle=entityRelationEdgeStyle;startArrow=none;endArrow=none;segment=10;curved=1;exitX=0;exitY=0.5;exitDx=0;exitDy=0;exitPerimeter=0;entryX=0.5;entryY=0;entryDx=0;entryDy=0;" parent="1" source="78" target="118" edge="1">
                    <mxGeometry relative="1" as="geometry">
                        <mxPoint x="478" y="1570" as="sourcePoint"/>
                    </mxGeometry>
                </mxCell>
                <mxCell id="120" value="学習アルゴリズム本体" style="whiteSpace=wrap;html=1;rounded=1;arcSize=50;align=center;verticalAlign=middle;strokeWidth=1;autosize=1;spacing=4;treeFolding=1;treeMoving=1;newEdgeStyle={&quot;edgeStyle&quot;:&quot;entityRelationEdgeStyle&quot;,&quot;startArrow&quot;:&quot;none&quot;,&quot;endArrow&quot;:&quot;none&quot;,&quot;segment&quot;:10,&quot;curved&quot;:1};fillColor=default;" parent="1" vertex="1">
                    <mxGeometry x="-130" y="1748" width="160" height="30" as="geometry"/>
                </mxCell>
                <mxCell id="121" value="" style="edgeStyle=entityRelationEdgeStyle;startArrow=none;endArrow=none;segment=10;curved=1;exitX=0;exitY=0.5;exitDx=0;exitDy=0;exitPerimeter=0;" parent="1" source="91" target="120" edge="1">
                    <mxGeometry relative="1" as="geometry">
                        <mxPoint x="-330.5" y="1800" as="sourcePoint"/>
                    </mxGeometry>
                </mxCell>
                <mxCell id="122" value="実行ファイル" style="rounded=0;whiteSpace=wrap;html=1;fillColor=#647687;fontColor=#ffffff;strokeColor=#314354;" parent="1" vertex="1">
                    <mxGeometry x="-160" y="116" width="120" height="60" as="geometry"/>
                </mxCell>
            </root>
        </mxGraphModel>
    </diagram>
</mxfile>